# xmcd CD database file
#
# Track frame offsets:
#	150
#	27704
#	53914
#	92051
#	119509
#	137442
#	148018
#	184420
#	222944
#	252809
#	288773
#
# Disc length: 4009 seconds
#
# Revision: 0
# Processed by: cddbd v1.5.2PL0 Copyright (c) Steve Scherf et al.
# Submitted via: CDex 1.51
#
DISCID=a80fa70b
DTITLE=Fred Pauze - Cosmos
DYEAR=2013
DGENRE=Jazz
TTITLE0=25 Janvier
TTITLE1=Mirage
TTITLE2=The Man Who Invented The 20th Century
TTITLE3=Emilita
TTITLE4=Free Man
TTITLE5=Introspection
TTITLE6=Daisy
TTITLE7=Expectations
TTITLE8=La Fain Du Nerf
TTITLE9=Cosmos
TTITLE10=Apres
EXTD=YEAR: 2013
EXTT0=
EXTT1=
EXTT2=
EXTT3=
EXTT4=
EXTT5=
EXTT6=
EXTT7=
EXTT8=
EXTT9=
EXTT10=
PLAYORDER=
